<?xml version="1.0" encoding="UTF-8"?>
<svg id="Capa_2" data-name="Capa 2" xmlns="http://www.w3.org/2000/svg" viewBox="0 0 207.29 115.79">
  <defs>
    <style>
      .cls-1 {
        stroke-width: 0px;
      }
    </style>
  </defs>
  <g id="Capa_1-2" data-name="Capa 1">
    <g>
      <g>
        <path class="cls-1" d="m16.76,0c8.2,0,12.93,4.25,12.93,11.6,0,4.61-1.94,8.38-5.4,10.32-1.88,1.03-4.37,1.58-7.47,1.58H5.34v17H0V0h16.76Zm4.98,17.3c1.64-1.4,2.55-3.4,2.55-5.65,0-2.61-1.27-4.86-3.28-6.01-1.4-.73-2.85-.97-5.28-.97H5.46v14.15h10.26c2.73,0,4.74-.49,6.01-1.52Z"/>
        <path class="cls-1" d="m52.51,40.92c-3.1,0-4.31-1.52-4.49-4.74-1.64,2.12-2.49,2.91-3.76,3.7-1.76.97-4.13,1.52-6.37,1.52-6.01,0-9.77-3.34-9.77-8.68,0-3.64,1.82-6.62,4.8-8.01,1.52-.67,2.97-.97,8.5-1.76,5.52-.67,6.31-1.27,6.31-3.46,0-3.46-2.19-5.16-6.56-5.16-4.61,0-6.8,1.7-7.22,5.52h-5.22c.49-6.31,5.1-9.9,12.69-9.9,7.04,0,11.23,3.28,11.23,8.62v15.85c0,1.88.61,2.49,2,2.49.42,0,.67,0,1.4-.18v3.95c-2.12.18-2.61.24-3.52.24Zm-12.26-13.78c-4.92.73-6.98,2.31-6.98,5.4s2,4.74,5.59,4.74c2.61,0,4.92-.97,6.92-2.85,1.4-1.46,1.82-2.31,1.82-4.07v-4.86c-2.37.79-3.46,1.15-7.35,1.64Z"/>
        <path class="cls-1" d="m62.23,13.9c2.43-2.97,4.92-4.19,8.62-4.19,4.61,0,8.26,2.12,10.44,6.01,1.52,2.67,2.12,5.77,2.12,10.38,0,9.53-4.8,15.42-12.51,15.42-3.95,0-6.13-1.09-8.56-4.43v3.4h-5.04V0h4.92v13.9Zm1.27,4.25c-.97,1.94-1.52,4.74-1.52,7.59,0,7.1,2.97,11.47,8.01,11.47s8.01-4.25,8.01-11.84c0-7.04-3.1-11.35-8.01-11.35-2.85,0-5.28,1.52-6.5,4.13Z"/>
        <path class="cls-1" d="m90.15,0v40.49h-4.92V0h4.92Z"/>
        <path class="cls-1" d="m119.29,25.62c0,9.77-5.4,15.97-13.84,15.97s-13.48-6.25-13.48-15.72,5.65-16.21,13.72-16.21,13.6,6.25,13.6,15.97Zm-21.98,0c0,7.29,2.97,11.47,8.26,11.47s8.38-4.19,8.38-11.41-3.04-11.35-8.32-11.35-8.32,4.19-8.32,11.29Z"/>
        <path class="cls-1" d="m17.67,79.56l11.6-33.69h5.89l-14.75,40.49h-5.83L0,45.86h6.01l11.66,33.69Z"/>
        <path class="cls-1" d="m53.42,83.57c-2.12,2.49-5.71,3.89-10.02,3.89-8.44,0-13.72-5.89-13.72-15.42,0-4.86,1.03-8.32,3.16-11.17,2.49-3.4,6.19-5.16,10.56-5.16,5.04,0,8.86,2.19,11.11,6.31,1.4,2.61,2.12,5.52,2.12,8.62v2.37h-21.55c.18,3.1.67,4.92,1.88,6.62,1.4,2.12,3.89,3.34,6.62,3.34,2.37,0,4.43-.79,5.65-2.43.91-.91,1.15-1.88,1.64-3.82h5.46c-.18,2.61-1.15,4.86-2.91,6.86Zm-10.2-23.37c-4.67,0-7.71,3.4-8.14,8.74h16.21c-.24-5.34-3.4-8.74-8.07-8.74Z"/>
        <path class="cls-1" d="m66.11,58.01c1.64-1.27,3.95-2.06,6.56-2.06,3.89,0,7.1,1.58,8.62,4.19.79,1.4,1.15,3.16,1.15,5.16v21.07h-4.92v-19.24c0-4.37-2.19-6.68-6.13-6.68-4.8,0-7.89,3.46-7.89,8.8v17.12h-4.92v-29.63h4.98v3.89c1.4-1.64,1.88-2.06,2.55-2.61Z"/>
        <path class="cls-1" d="m87.79,56.55v-7.59h4.92v7.59h4.8v3.95h-4.61v18.03c0,3.16.49,3.7,3.22,3.7.24,0,.79-.06,1.58-.06v4.01c-2.19.18-2.91.24-3.7.24-4.37,0-6.19-1.82-6.19-6.25v-19.67h-4.07v-3.95h4.07Z"/>
        <path class="cls-1" d="m115.16,85.08c-1.64,1.27-3.95,2.06-6.56,2.06-3.89,0-7.1-1.58-8.62-4.19-.79-1.4-1.15-3.16-1.15-5.16v-21.07h4.92v19.25c0,4.31,2.19,6.68,6.13,6.68,4.67,0,7.89-3.46,7.89-8.8v-17.12h4.92v29.63h-5.04v-3.95c-1.4,1.7-1.82,2.13-2.49,2.67Z"/>
        <path class="cls-1" d="m130.34,56.73v4.74c2.19-3.89,4.31-5.34,7.41-5.34h2v5.34h-1.58c-3.1,0-5.28,1.15-6.68,3.52-.67,1.15-1.27,3.7-1.27,5.34v16.03h-4.92v-29.63h5.04Z"/>
        <path class="cls-1" d="m162.88,86.78c-3.1,0-4.31-1.52-4.49-4.74-1.64,2.12-2.49,2.91-3.76,3.7-1.76.97-4.13,1.52-6.37,1.52-6.01,0-9.77-3.34-9.77-8.68,0-3.64,1.82-6.62,4.8-8.01,1.52-.67,2.97-.97,8.5-1.76,5.52-.67,6.31-1.27,6.31-3.46,0-3.46-2.19-5.16-6.56-5.16-4.61,0-6.8,1.7-7.22,5.52h-5.22c.49-6.31,5.1-9.9,12.69-9.9,7.04,0,11.23,3.28,11.23,8.62v15.85c0,1.88.61,2.49,2,2.49.42,0,.67,0,1.4-.18v3.95c-2.12.18-2.61.24-3.52.24Zm-12.26-13.78c-4.92.73-6.98,2.31-6.98,5.4s2,4.74,5.59,4.74c2.61,0,4.92-.97,6.92-2.85,1.4-1.46,1.82-2.31,1.82-4.07v-4.86c-2.37.79-3.46,1.15-7.35,1.64Z"/>
      </g>
      <path class="cls-1" d="m207.26,56.14c-.17-.27-.03-.59-.13-.82-.15-.31-.08-.6-.11-.9,0-.07.03-.16,0-.2-.19-.21-.09-.46-.12-.69-.03-.25-.08-.5-.12-.76-.03-.21.09-.45-.13-.62.03-.46-.2-.88-.23-1.31-.03-.46-.17-.89-.32-1.29-.34-.89-.67-1.78-1.03-2.66-.14-.34-.31-.68-.41-1.03-.13-.45-.33-.85-.57-1.24-.3-.48-.63-.94-.91-1.43-.3-.52-.67-.96-1-1.44-.25-.37-.5-.73-.78-1.06-.37-.44-.66-.97-1.08-1.33-.49-.42-.9-.91-1.35-1.36-.1-.1-.22-.19-.33-.28-.38-.31-.77-.61-1.15-.92-.51-.41-1.01-.84-1.53-1.24-.19-.15-.43-.23-.6-.39-.35-.35-.79-.57-1.19-.83-.46-.3-.95-.56-1.45-.79-.5-.22-.99-.45-1.48-.7-.63-.32-1.29-.54-1.94-.83-.56-.25-1.15-.37-1.73-.54-.22-.07-.45-.15-.64-.27-.28-.19-.61-.04-.88-.16-.75-.33-1.55-.42-2.32-.64-.42-.12-.85-.18-1.27-.28-.34-.08-.68-.22-1.02-.26-.26-.03-.51-.07-.76-.13-.27-.06-.55-.02-.83-.13-.31-.12-.68-.05-1-.17-.32-.11-.66-.18-.97-.23-.72-.12-1.44-.29-2.16-.41-.55-.09-1.1-.19-1.65-.27-.41-.07-.82-.14-1.22-.25-.4-.11-.81-.14-1.2-.3-.27-.11-.59-.1-.88-.15-.28-.04-.53-.21-.82-.14-.22-.29-.61.01-.83-.27-.38,0-.73-.14-1.09-.26-.37-.13-.78-.14-1.14-.29-.48-.21-.99-.22-1.48-.39-.22-.08-.52-.02-.68-.16-.24-.21-.5-.08-.75-.18-.45-.18-.92-.38-1.38-.46-.7-.13-1.33-.52-2.04-.56-.79-.5-1.69-.71-2.52-1.1-.19-.09-.39-.23-.59-.24-.25,0-.31-.4-.58-.29-.89-.39-1.82-.68-2.67-1.2-.27-.16-.55-.3-.84-.43-.45-.19-.94-.29-1.31-.67-.13-.14-.34-.25-.52-.27-.31-.03-.53-.25-.8-.36-.25-.1-.52-.18-.76-.29-.27-.12-.51-.3-.78-.42-.74-.36-1.48-.72-2.23-1.05-.37-.17-.76-.3-1.15-.43-.57-.2-1.14-.49-1.73-.53-.57-.04-1.07-.43-1.65-.3-.25-.24-.57-.04-.82-.15-.3-.14-.59-.11-.89-.12-.44,0-.88-.02-1.31,0-.42.02-.84.13-1.26.12-.45,0-.87.25-1.33.15-.03,0-.07.05-.1.05-.42.06-.83.12-1.3.19.27-.29.45-.63.72-.74.34-.14.38-.48.59-.7.29-.31.58-.66.72-1.09.2-.59.44-1.16.65-1.74.22-.6.35-1.31.99-1.63-.13-.12-.26-.23-.48-.42-.37,0-.83-.21-1.24-.57-.15-.14-.3-.32-.48-.37-.42-.11-.76-.43-1.22-.44-.18,0-.36-.14-.61-.24-.4.03-.85-.3-1.35-.1v.16c.22.07.42.15.63.19.35.07.65.26,1.02.29.29.03.59.19.86.36.19.12.33.3.57.3.28,0,.31.41.6.42.1,0,.2.13.3.18.21.1.43.18.71.29-.42.08-.77.15-1.14.23-.2.2-.42.42-.72.71-.06.17-.17.46-.27.76-.08.21-.09.51-.23.63-.22.18-.16.44-.29.63-.14.2-.24.43-.36.65-.08.14-.16.29-.27.42-.34.44-.77.76-1.22,1.06-.45.3-.92.54-1.39.79-.38.2-.81.28-1.16.56-.09.07-.21.09-.32.14-.11.05-.22.12-.4.22.74.14,1.35,0,1.98-.08.24-.25.56-.05.81-.16.42-.18.88-.18,1.3-.36.23-.1.5-.03.76-.13.23-.09.5-.08.76-.13.58-.12,1.17-.13,1.76-.15.44-.02.88,0,1.31,0,.15,0,.3-.08.46-.12.06.04.12.12.19.12.55.05,1.09.1,1.64.14.06,0,.16-.03.18,0,.19.29.5.03.74.22.19.15.49.11.74.19.63.19,1.29.27,1.89.63.21.12.46.26.69.3.49.09.93.3,1.35.56.29.18.62.23.91.43.29.2.63.32.92.52.07.04.13.11.2.13.43.13.84.32,1.23.55.43.25.85.5,1.28.74.6.34,1.18.75,1.81.99.95.36,1.86.81,2.8,1.18.96.38,1.87.88,2.86,1.19.5.16.96.42,1.48.54.51.12,1.03.25,1.53.42.7.24,1.39.43,2.12.5.33.03.69.06,1,.17.78.28,1.57.4,2.37.5.1.01.19.04.29.06.46.11.91.25,1.37.34.37.07.78.03,1.13.16.26.1.51.09.77.12.26.03.51.09.76.13.38.05.78.02,1.13.16.25.1.49.03.7.13.26.12.51.08.77.13.53.1,1.04.23,1.58.31.4.05.79.23,1.22.24.27,0,.55.07.81.17.32.12.65.19.98.21.33.02.62.11.93.21.05.02.11.07.16.07.47-.03.9.18,1.34.24.42.06.79.25,1.2.32.4.06.77.26,1.16.39.66.23,1.33.44,1.99.68.99.36,1.97.73,2.91,1.22.44.23.86.51,1.31.66.58.19,1.04.56,1.54.88.47.31.99.57,1.36,1.04.97.51,1.7,1.36,2.52,2.08.84.74,1.41,1.73,2.04,2.67.38.57.67,1.19,1,1.79.12.22.26.42.37.65.29.57.5,1.17.72,1.78.21.61.39,1.23.54,1.86.08.34.16.68.12,1.03.24.14.04.43.17.6.16.2,0,.45.09.64.13.3.05.61.13.89.14.52.17,1.06.24,1.59.04.32-.07.66.12.96.05.08.05.27,0,.32-.17.17-.11.37-.12.56-.06,1.15.11,2.32-.12,3.47-.07.36.06.75-.13,1.09.08.58-.18,1.1-.25,1.65-.02.17-.09.32-.12.49-.02.17-.07.33-.11.49-.1.47-.27.92-.4,1.38-.46,1.64-1.04,3.24-1.75,4.77-.41.88-.77,1.8-1.27,2.61-.37.6-.59,1.31-1.1,1.81-.54,1.13-1.28,2.11-1.99,3.11-.26.37-.6.67-.84,1.05-.42.64-.95,1.18-1.34,1.84-.33.55-.79.98-1.16,1.51-.56.78-1.19,1.51-1.8,2.24-.42.51-.92.95-1.29,1.52-.21.33-.53.57-.78.87-.23.27-.41.62-.68.84-.29.24-.45.58-.73.82-.23.2-.39.49-.63.65-.25.16-.34.46-.56.63-.21.16-.47.32-.56.55-.12.29-.39.27-.54.49-.16.23-.38.42-.57.63-.03.03-.06.09-.09.09-.29.06-.43.33-.6.54-.19.22-.42.37-.61.59-.24.29-.51.57-.81.78-.68.47-1.28,1.05-1.87,1.64-.12.12-.22.29-.36.38-.5.32-.94.73-1.37,1.13-.61.57-1.34.96-1.9,1.6-1.01.55-1.82,1.42-2.77,2.07-.47.32-.9.71-1.35,1.05-.33.24-.71.41-.96.76-.07.09-.19.14-.3.19-.39.2-.73.51-1.09.76-.36.25-.79.35-1.12.67-.19.18-.41.33-.63.46-.75.45-1.5.88-2.25,1.32-.19.11-.38.22-.56.34-.66.42-1.25.95-1.95,1.29-1.2.59-2.33,1.33-3.49,2.01-.48.28-.99.5-1.42.87-.47.03-.81.39-1.23.56-.41.17-.81.39-1.21.59-.65.33-1.27.71-1.93.99-.68.29-1.38.55-2.05.86-.45.2-.9.38-1.36.53-.44.15-.88.32-1.34.42-7.3,1.68-10.81,1.66-15.92,1.72-6.39.08-21.72.52-28.1.17-12.64-.69-23.43-.5-36.01-1.85-7.67-.83-17.31-1.39-24.87-2.87-14.37-2.81-33.52-12.08-35.98-14.84l-6.78,1.06c11.36,8.97,25.33,14.57,39.68,17.76,14.36,3.18,29.16,4.05,43.89,4.35,13.95.28,27.46.84,41.39.12,6.97-.36,12.09-.6,19.04-1.2,2.83-.25,8-1.24,10.58-2.43,2.21-1.03,4.45-2.05,6.71-2.98.59-.25,1.16-.55,1.75-.82.5-.22,1.03-.38,1.49-.67.49-.3,1.09-.34,1.52-.79.58-.07,1.01-.51,1.53-.75.76-.36,1.52-.75,2.2-1.28.53-.09.96-.44,1.42-.69,1.27-.68,2.58-1.3,3.7-2.27.32-.27.69-.53,1.05-.68.75-.32,1.41-.8,2.1-1.23.58-.37,1.11-.81,1.68-1.17.41-.26.79-.56,1.17-.86.48-.36.91-.8,1.37-1.18.76-.63,1.5-1.29,2.26-1.94.3-.26.56-.58.88-.8.39-.27.75-.57,1.09-.92.28-.29.56-.59.88-.81.68-.45,1.23-1.05,1.82-1.61.99-.94,1.85-2.04,2.88-2.96.37-.33.68-.73,1.02-1.1.32-.35.7-.66.96-1.06.4-.61.91-1.11,1.34-1.69.36-.48.76-.92,1.14-1.39.04-.05.05-.12.09-.16.12-.14.24-.27.37-.4.1-.1.29-.18.31-.29.05-.24.26-.23.36-.37.1-.16.2-.32.31-.47.27-.35.57-.69.84-1.05.6-.81,1.19-1.63,1.77-2.46.4-.58.79-1.18,1.16-1.78.57-.93,1.13-1.86,1.55-2.9.23-.57.57-1.1.83-1.66.52-1.12,1.06-2.23,1.47-3.41.27-.77.46-1.56.67-2.34.16-.62.38-1.23.62-1.99.03-.42.08-1.01.12-1.61,0-.02,0-.06,0-.07.24-.24.04-.57.13-.82.11-.28.11-.55.11-.83,0-1.02,0-2.03,0-3.05,0-.14.05-.31,0-.4Z"/>
    </g>
  </g>
</svg>